PathFileType	4	(X/Y/Z)	C:/Users/opensim2020/Desktop/walking_exp_matlab/subject03_walking15_straight_03.trc	
DataRate	CameraRate	NumFrames	NumMarkers	Units	OrigDataRate	OrigDataStartFrame	OrigNumFrames	
100.00	100.00	8	47	mm	100.00	1687	220	
Frame#	Time	LFHD			RFHD			LBHD			RBHD			C7			T10			CLAV			STRN			RBAK			LSHO			LUPA			LELB			LFRM			LWRA			LWRB			LFIN			RSHO			RUPA			RELB			RFRM			RWRA			RWRB			RFIN			LASI			RASI			LPSI			RPSI			LTHI			LKNE			LTIB			LANK			LHEE			LTOE			RTHI			RKNE			RTIB			RANK			RHEE			RTOE			*39			*40			*41			*42			*43			*44			*45			*46			
		X1	Y1	Z1	X2	Y2	Z2	X3	Y3	Z3	X4	Y4	Z4	X5	Y5	Z5	X6	Y6	Z6	X7	Y7	Z7	X8	Y8	Z8	X9	Y9	Z9	X10	Y10	Z10	X11	Y11	Z11	X12	Y12	Z12	X13	Y13	Z13	X14	Y14	Z14	X15	Y15	Z15	X16	Y16	Z16	X17	Y17	Z17	X18	Y18	Z18	X19	Y19	Z19	X20	Y20	Z20	X21	Y21	Z21	X22	Y22	Z22	X23	Y23	Z23	X24	Y24	Z24	X25	Y25	Z25	X26	Y26	Z26	X27	Y27	Z27	X28	Y28	Z28	X29	Y29	Z29	X30	Y30	Z30	X31	Y31	Z31	X32	Y32	Z32	X33	Y33	Z33	X34	Y34	Z34	X35	Y35	Z35	X36	Y36	Z36	X37	Y37	Z37	X38	Y38	Z38	X39	Y39	Z39	X40	Y40	Z40	X41	Y41	Z41	X42	Y42	Z42	X43	Y43	Z43	X44	Y44	Z44	X45	Y45	Z45	X46	Y46	Z46	X47	Y47	Z47	

111	1.100	1336.52625	-55.16727	1615.80676	1469.58264	-53.82022	1625.85547	1347.06677	-170.32675	1546.15283	1477.39282	-164.35208	1556.48914	1403.38672	-170.79953	1391.74731	1402.35400	-175.80701	1082.23840	1405.31042	-39.92397	1331.46521	1400.25708	20.86576	1171.16162	1496.03259	-202.80388	1211.61670	1247.06702	-88.00758	1365.03882	1175.62463	-125.46542	1169.69153	1162.82898	-144.89537	1047.47778	1156.70801	-159.32332	917.19867	1181.47827	-186.55009	796.69641	1126.90869	-201.16637	812.61407	1142.58130	-246.87758	735.16510	1565.06763	-95.79011	1349.24695	1648.32764	-75.82466	1134.23071	1668.69263	-42.68885	1029.42639	1673.62817	25.99473	912.93256	1639.24048	95.27364	842.55078	1681.58948	68.29118	823.12543	1674.11035	126.80993	778.55774	1298.88867	-2.62910	928.01544	1531.41333	-27.29018	919.35095	1327.23022	-170.43817	945.86536	1477.28430	-182.49678	954.12457	1246.87012	22.19503	636.75659	1294.77173	86.09668	477.33286	1289.39832	75.07793	278.00150	1327.05798	89.03169	68.66686	1360.61719	46.28930	34.79506	1364.69873	237.00806	38.71113	1568.93152	-130.82774	629.89044	1541.74426	-153.46576	450.10388	1533.59241	-298.18927	315.25049	1479.49365	-443.34189	158.71489	1424.13513	-490.12146	161.67723	1462.82007	-361.70404	36.04637	1389.13879	-148.33405	1660.20288																					 
112	1.110	1336.29297	-42.05470	1616.60327	1469.35291	-40.92502	1626.37317	1346.40137	-157.08884	1546.85547	1476.81018	-151.48759	1556.97119	1402.13220	-157.33990	1392.35999	1401.68213	-161.12210	1082.56348	1404.96167	-26.53730	1332.29102	1400.17102	35.23819	1172.34863	1494.04480	-189.44411	1211.38672	1246.42712	-73.46584	1365.80981	1174.90808	-108.56965	1169.84314	1162.41418	-127.86910	1047.75244	1156.45129	-142.17111	917.44287	1180.95789	-169.25890	796.95154	1125.92139	-183.08655	812.93475	1141.45850	-230.07779	735.78687	1564.43970	-83.57755	1349.52075	1647.24939	-64.18366	1134.23596	1667.74353	-31.74717	1029.16431	1673.17810	36.18623	911.98035	1639.10718	105.36260	841.08124	1681.39722	77.43049	821.88348	1674.35217	135.52719	776.31708	1298.38074	12.76933	929.79016	1530.18359	-11.87580	919.60394	1326.64392	-154.78743	947.27649	1476.92944	-167.00711	953.87878	1246.87317	38.46068	639.16101	1296.09912	100.87955	479.01611	1288.00439	86.01981	278.36435	1327.63989	90.76295	68.96165	1360.40930	46.81908	35.21979	1366.59375	238.27946	37.49207	1569.09277	-110.65752	628.05627	1544.09290	-129.09789	447.98328	1534.71509	-277.93140	318.10071	1479.69873	-427.42914	166.81810	1423.00562	-472.04462	173.67821	1461.95337	-359.33020	36.05464	1389.00439	-135.42589	1660.60046																					 
113	1.120	1336.46155	-29.04727	1617.27051	1469.16553	-28.17063	1626.88647	1345.91064	-144.01462	1547.55457	1476.34521	-138.61488	1557.40698	1401.07935	-143.70876	1392.92480	1401.14087	-146.74129	1082.95190	1404.66296	-13.04069	1333.13049	1400.19666	49.52048	1173.46399	1492.47241	-176.14244	1211.57068	1245.92908	-59.04417	1366.67456	1174.22583	-91.54500	1170.31018	1162.06665	-110.41102	1048.42395	1156.03467	-123.75825	918.00330	1180.58228	-150.79315	797.22314	1125.60803	-163.74779	812.87408	1140.87024	-211.90356	736.01587	1563.78076	-71.21873	1350.09314	1646.19275	-52.46702	1134.50867	1666.80981	-20.61625	1029.22083	1672.84717	45.99563	911.19299	1639.08423	114.48894	839.20337	1681.40759	86.33051	820.68109	1674.08240	143.01175	773.59918	1298.07556	27.75809	931.74866	1528.92444	3.19627	919.91022	1326.48511	-139.77394	948.80499	1476.81580	-152.01396	953.60211	1246.76489	54.49792	641.32123	1296.92542	114.05665	479.72803	1288.32971	94.81050	278.46674	1328.11499	91.85490	69.11533	1360.20569	47.05187	35.32120	1368.54980	238.85114	36.76843	1569.25623	-89.90431	626.08002	1545.69751	-103.60713	445.83670	1535.92322	-255.61946	320.59409	1480.86267	-408.67831	173.65257	1422.99866	-451.15021	185.58920	1460.67822	-357.19223	36.21747	1388.59204	-122.05411	1661.09644																					 
114	1.130	1336.10693	-16.15268	1617.97046	1468.93518	-15.32438	1627.37573	1345.41846	-130.87607	1548.12793	1475.86731	-125.68159	1557.72412	1400.13550	-130.14230	1393.41553	1400.71375	-132.75026	1083.46899	1404.44580	0.52357	1333.83484	1400.34741	63.64409	1174.47131	1491.15027	-162.90688	1211.94543	1245.56506	-44.50910	1367.57239	1173.58350	-74.59637	1170.93652	1161.69128	-92.77794	1048.65295	1155.79749	-104.92622	918.21381	1179.40417	-130.06474	797.82428	1124.84851	-143.36244	812.96350	1139.36646	-191.56134	736.00629	1563.11780	-58.83056	1350.76379	1645.19165	-40.77241	1134.96533	1665.92566	-9.41713	1029.50916	1672.35034	55.50201	910.51660	1639.13843	123.30040	837.58167	1681.32043	94.55343	819.41559	1673.91711	149.96330	770.64844	1297.57129	42.78042	933.97046	1527.73242	17.81447	920.25940	1326.43250	-125.11597	950.31006	1476.67444	-137.53517	953.24200	1246.65918	69.80334	643.07440	1297.19531	125.16998	479.28308	1288.77686	101.71555	278.29382	1328.43298	92.16222	69.63193	1360.36890	47.17777	35.59819	1368.02759	239.31099	36.29062	1569.24524	-68.90497	623.75800	1546.46960	-77.35458	443.62152	1536.41785	-231.24606	322.52353	1482.94116	-387.87790	179.04854	1425.11694	-428.43674	198.04805	1458.77600	-351.76682	39.15476	1388.27747	-109.10275	1661.89209																					 
115	1.140	1335.83069	-3.16671	1618.60815	1468.67334	-2.57309	1627.97058	1344.95886	-117.75689	1548.54065	1475.44043	-112.78246	1558.11548	1399.24585	-116.94243	1393.76160	1400.36511	-118.81297	1084.00452	1404.33875	14.13024	1334.54688	1400.60303	77.60847	1175.32397	1490.23901	-149.84627	1212.59509	1245.25928	-29.81820	1368.42261	1173.32715	-57.82365	1171.43262	1161.12952	-74.64810	1049.07678	1155.54700	-85.18455	918.46893	1179.15625	-109.48704	797.90186	1124.35022	-121.78527	812.82239	1137.94275	-169.77826	735.52814	1562.52466	-46.43104	1351.52258	1644.28040	-29.22417	1135.48022	1664.90833	1.51381	1029.85327	1671.88892	64.70528	909.87384	1638.26880	130.65385	835.12604	1681.08704	102.04670	818.21918	1674.17773	156.88190	767.87738	1297.21802	57.35112	935.99829	1526.90759	31.98089	920.56897	1326.43994	-110.78945	951.64496	1476.57349	-123.72072	952.84912	1246.39136	82.94790	643.99243	1296.87830	134.49750	478.40689	1288.44116	106.57542	278.01614	1328.55115	92.52673	69.79187	1360.36340	47.05349	35.59427	1368.60583	239.41290	36.01031	1569.12988	-48.17294	621.42462	1546.73438	-50.49427	441.41516	1536.79773	-205.03596	323.73663	1484.81946	-365.86102	185.03639	1427.99011	-404.91376	210.65125	1457.59741	-342.16321	45.02702	1387.99976	-96.35193	1662.13586																					 
116	1.150	1335.57751	9.80644	1619.43579	1468.46887	10.30496	1628.80701	1344.63184	-104.67495	1548.95935	1475.07959	-99.80219	1558.57874	1398.33984	-103.75787	1394.12671	1400.10376	-104.97944	1084.75085	1404.31592	27.60910	1335.29333	1401.07751	91.34280	1176.16333	1489.39063	-136.68913	1213.39636	1245.05408	-15.14222	1369.24011	1172.66113	-40.80046	1172.04956	1160.55078	-56.19571	1049.44592	1155.30725	-64.78606	918.70178	1178.17664	-87.56569	798.01447	1123.94165	-99.31583	812.52539	1136.49365	-146.41164	734.67108	1562.02063	-33.91918	1352.31824	1643.53296	-17.80318	1135.99548	1664.01807	12.31828	1030.14954	1671.44104	73.68054	909.18872	1638.16016	138.60156	833.12988	1680.94287	109.47410	816.87482	1673.76965	162.81732	764.61182	1297.02881	71.66589	937.90399	1526.53613	45.68389	920.79187	1326.57703	-96.76281	953.06989	1476.43909	-110.32534	952.43689	1245.06152	93.74729	644.17407	1296.11731	142.30518	477.12628	1288.04102	109.70319	277.69046	1328.72302	92.51855	69.85530	1360.46851	46.92114	35.62985	1368.67664	239.50774	35.83334	1568.92554	-27.61176	619.26306	1546.63794	-23.16355	439.44260	1537.90259	-177.13895	323.86749	1485.65198	-343.29755	192.50911	1429.62170	-381.02750	222.20135	1458.03381	-328.25443	52.35316	1387.63562	-83.75190	1662.83545																					 
117	1.160	1335.25830	22.64208	1620.36414	1468.14197	23.01514	1629.82703	1344.29272	-91.53886	1549.53052	1474.77966	-86.77679	1559.19824	1397.36060	-90.54248	1394.90222	1399.75012	-91.18399	1085.65588	1404.39575	40.97175	1336.14441	1401.78430	104.92484	1177.11157	1488.68982	-123.93443	1214.52991	1244.90088	-0.54296	1370.07336	1171.89050	-23.81894	1172.76221	1159.84692	-37.32076	1049.81677	1155.15186	-43.83862	918.95380	1178.75720	-65.62545	797.87036	1123.64978	-76.18322	812.17773	1135.04150	-121.54432	733.39032	1561.66797	-21.42601	1353.15662	1642.96448	-6.51354	1136.49622	1663.28125	22.98703	1030.33899	1670.91650	82.47424	908.37787	1637.87903	146.13370	830.95947	1680.65674	116.65543	815.34216	1673.42200	168.37094	761.26337	1297.09058	85.78290	939.50519	1526.70288	58.74008	920.99915	1326.40784	-82.70564	954.39459	1476.17627	-97.24626	952.06268	1244.78271	101.67118	643.64728	1295.07715	148.95180	476.08737	1287.23291	111.90080	277.47610	1328.77222	92.38455	69.92152	1360.56787	46.81955	35.70194	1368.52771	239.54427	35.67224	1568.53369	-7.54955	617.81854	1546.57202	4.57926	438.03687	1539.65637	-148.70149	323.40778	1485.44348	-320.15881	200.55180	1428.66052	-357.38309	230.79218	1460.27551	-308.04102	59.99575	1387.26587	-71.13871	1663.39063																					 
118	1.170	1335.02991	35.55406	1621.43323	1467.94983	35.85003	1630.99365	1344.07275	-78.46404	1550.16663	1474.47656	-73.78019	1560.01086	1396.42834	-77.16264	1395.83447	1399.23767	-77.70861	1086.80127	1404.62024	54.31826	1337.22754	1402.65356	118.37836	1178.11633	1487.93542	-111.32038	1215.69019	1244.81213	14.02818	1370.85767	1171.76880	-6.50835	1173.34448	1159.26050	-18.31080	1050.17566	1154.91956	-22.34924	919.31854	1178.77405	-42.71346	798.09576	1123.13196	-52.27938	812.02631	1134.07703	-95.68556	732.02063	1561.39819	-9.03237	1353.98450	1642.52209	4.53929	1137.03308	1662.60840	33.27610	1030.45789	1670.46265	91.00003	907.45184	1637.82727	153.50627	828.97510	1680.37463	123.40837	813.70697	1672.93567	173.37465	757.84406	1297.36572	99.69241	940.96436	1527.20630	71.31778	921.34601	1326.20044	-68.99500	955.92108	1475.67896	-84.34972	951.82751	1244.24133	109.18211	642.94257	1293.93274	154.26978	474.83896	1286.35376	113.82629	277.25064	1328.61951	92.31951	69.90874	1360.40918	46.68714	35.78792	1368.41248	239.53212	35.54163	1567.81555	11.95055	617.38251	1546.63342	32.45362	437.74921	1540.05591	-120.37213	324.44928	1484.56836	-295.90369	208.08394	1427.28760	-333.83786	236.71640	1462.11560	-282.31305	66.85574	1386.92725	-58.49294	1664.22131																					 
